<svg width="17" height="17" viewBox="0 0 17 17" fill="none" xmlns="http://www.w3.org/2000/svg">
<path fill-rule="evenodd" clip-rule="evenodd" d="M13.3269 1.55518H11.0809C10.1439 1.55518 9.39307 2.31934 9.39307 3.25693V5.52218C9.39307 6.46576 10.1439 7.22327 11.0809 7.22327H13.3269C14.2571 7.22327 15.0147 6.46576 15.0147 5.52218V3.25693C15.0147 2.31934 14.2571 1.55518 13.3269 1.55518ZM3.41262 1.55523H5.6586C6.59553 1.55523 7.3464 2.3194 7.3464 3.25699V5.52224C7.3464 6.46581 6.59553 7.22333 5.6586 7.22333H3.41262C2.48234 7.22333 1.72482 6.46581 1.72482 5.52224V3.25699C1.72482 2.3194 2.48234 1.55523 3.41262 1.55523ZM3.4126 9.17669H5.65857C6.5955 9.17669 7.34638 9.93487 7.34638 10.8785V13.1437C7.34638 14.0806 6.5955 14.8448 5.65857 14.8448H3.4126C2.48231 14.8448 1.72479 14.0806 1.72479 13.1437V10.8785C1.72479 9.93487 2.48231 9.17669 3.4126 9.17669ZM11.0809 9.17669H13.3269C14.2571 9.17669 15.0147 9.93487 15.0147 10.8785V13.1437C15.0147 14.0806 14.2571 14.8448 13.3269 14.8448H11.0809C10.1439 14.8448 9.39307 14.0806 9.39307 13.1437V10.8785C9.39307 9.93487 10.1439 9.17669 11.0809 9.17669Z" fill="#191D2B"/>
</svg>
